# xmcd
#
# Track frame offsets:
#	150
#	11489
#	23078
#	33381
#	47627
#	61712
#	76501
#	89211
#	96731
#	110595
#	121673
#	133082
#	145622
#	158889
#	171522
#	183691
#
# Disc length: 2606 seconds
# Revision: 1
# Processed by: cddbd v1.5.2PL0 Copyright (c) Steve Scherf et al.
# Submitted via: dBpowerAMP V12.0
#
DISCID=d40a2c10
DTITLE=Ray Charles - Ultimate Legends: Ray Charles
DYEAR=2001
DGENRE=R&B
TTITLE0=She's on the Ball
TTITLE1=How Long
TTITLE2=Ain't That Fine
TTITLE3=Kissa Me Baby
TTITLE4=Walkin' and Talkin'
TTITLE5=I'm Wonderin' and Wonderin'
TTITLE6=Lonely Boy
TTITLE7=Ray's Blues
TTITLE8=Late in the Evening
TTITLE9=I'll Do Anything But Work
TTITLE10=What Have I Done?
TTITLE11=You Always Miss the Water (When the Well Runs Dry)
TTITLE12=Alone in the City
TTITLE13=Don't Put All Your Dreams in One Basket
TTITLE14=Honey, Honey
TTITLE15=Can't See
EXTD=
EXTT0=
EXTT1=
EXTT2=
EXTT3=
EXTT4=
EXTT5=
EXTT6=
EXTT7=
EXTT8=
EXTT9=
EXTT10=
EXTT11=
EXTT12=
EXTT13=
EXTT14=
EXTT15=
PLAYORDER=
